<svg width="74" height="20" viewBox="0 0 74 20" fill="none" xmlns="http://www.w3.org/2000/svg">
<g clip-path="url(#clip0)">
<path d="M8.67284 18.9057C8.27741 18.3698 7.96672 17.943 7.65837 17.5434C6.59683 16.1812 5.69769 16.5899 4.76795 17.75C4.61117 18.0105 4.47048 18.2796 4.34663 18.556C4.23855 18.7128 4.11648 18.8602 3.98179 18.9965C3.36275 18.581 2.84257 18.1519 2.24472 17.8794C2.06583 17.7977 1.6751 18.1496 1.34322 18.3199C1.54094 18.8262 1.69629 19.2281 1.85399 19.6345C1.35499 19.9773 0.952499 19.8933 0.660632 19.5209C0.119267 18.8194 -0.198491 18.0633 0.201649 17.187C0.670048 16.1607 1.41148 15.4388 2.57189 15.1663L3.42395 14.9574V10.1896C2.88259 10.2895 2.81903 10.6437 2.75784 11.0342C2.64486 11.7312 2.21412 11.6018 1.71041 11.4565C1.71041 10.1419 1.69394 8.89772 1.72689 7.65581C1.73507 7.53767 1.77139 7.42295 1.83304 7.32057C1.89468 7.21818 1.97998 7.1309 2.08231 7.0655C2.41654 6.93155 2.65427 7.13134 2.7649 7.48553C2.87105 7.7461 2.99693 7.9988 3.1415 8.24157C3.31803 8.1167 3.42395 8.0781 3.42395 8.03724C3.42395 6.33897 3.42395 4.63163 3.40748 2.94472C3.39899 2.71864 3.33956 2.49705 3.2333 2.29538C2.93672 1.71189 2.50363 1.53252 2.01169 1.75729C1.39265 2.04336 1.19258 2.56556 1.48916 3.15813C1.60449 3.38517 1.74572 3.60086 1.87988 3.8279C0.94073 4.21387 0.128682 3.77568 0.0157012 2.85844C-0.092572 1.97752 0.335813 1.31456 1.02547 0.815075C2.40948 -0.204336 4.02416 -0.249745 5.49762 0.67431C5.89087 0.922198 6.26816 1.19287 6.62742 1.48485C8.79289 3.21716 11.335 2.89477 12.9214 0.676581C13.0814 0.454081 13.2368 0.256556 13.4274 0C13.5946 0.138495 13.7476 0.208877 13.8088 0.324668C14.4325 1.53479 15.4705 2.18186 16.8051 2.47928C17.0664 2.53604 17.2923 2.74946 17.5324 2.89023C17.3371 3.09683 17.1793 3.38744 16.9346 3.49869C16.6053 3.62948 16.3263 3.85572 16.1361 4.14613C15.9459 4.43654 15.854 4.77676 15.873 5.11976C15.873 8.06675 15.873 11.0183 15.873 13.9743C15.873 14.6759 16.2661 15.1799 16.8404 15.5636C17.0758 15.7294 17.3253 15.9019 17.5301 16.045C17.4924 16.222 17.5018 16.3333 17.4571 16.3605C16.4182 16.9595 15.5223 17.7633 14.8279 18.7195C14.5219 19.1463 14.0724 19.1236 13.6864 18.8557C13.2834 18.5581 12.9035 18.2325 12.5495 17.8817C12.4365 17.7326 12.3327 17.5772 12.2388 17.4163C11.3279 16.3265 10.4735 16.3492 9.60023 17.5026C9.27541 17.9158 9.0212 18.3676 8.67284 18.9057ZM9.62847 10.9592C9.8356 10.6709 9.93682 10.5892 9.95565 10.5052C10.3064 8.80463 10.6618 7.09956 10.9842 5.39902C11.0345 5.10091 11.0233 4.79615 10.9513 4.50221C10.8738 4.18519 10.686 3.90339 10.4191 3.70382C10.1522 3.50425 9.82249 3.399 9.48489 3.40561C8.82584 3.46691 8.37392 4.00727 8.36921 4.76785C8.36556 5.07277 8.39554 5.37721 8.45865 5.67601C8.82349 7.36519 9.2048 9.04757 9.62847 10.9547V10.9592ZM5.91423 15.8656C6.78748 14.996 6.87222 14.7849 6.62036 13.6951C6.1143 11.5359 5.58471 9.38131 5.05982 7.2267C4.98835 7.04503 4.90094 6.86957 4.79855 6.70224C4.72716 6.88454 4.67434 7.07312 4.64085 7.2653C4.64085 9.37223 4.61966 11.4792 4.69263 13.5838C4.69708 14.0298 4.80992 14.4686 5.02208 14.8649C5.23424 15.2611 5.53981 15.6039 5.91423 15.8656ZM12.0034 7.5718H11.8316C11.7231 7.84956 11.6312 8.13307 11.5562 8.42093C11.2361 9.97389 10.916 11.5291 10.6312 13.0866C10.5264 13.6053 10.4916 14.1349 10.5276 14.6623C10.5559 15.0187 10.7912 15.357 10.9325 15.7044H11.2738C11.4738 15.2821 11.7728 14.878 11.8528 14.4352C11.9635 13.7245 12.0139 13.0061 12.0034 12.2874C12.0175 10.7163 12.0034 9.14292 12.0034 7.5718Z" fill="#FEFEFE"/>
<path d="M41.3367 4.64529C39.9456 5.7805 39.6631 6.66368 40.0656 8.56401C40.9624 8.57537 41.4944 8.33697 41.5768 7.56503C41.7415 6.04386 42.0475 4.47728 41.1719 3.02422C40.494 1.90491 39.5101 1.16476 38.1497 1.17384C37.4979 1.15695 36.853 1.30661 36.2805 1.60765C35.708 1.90869 35.2282 2.3504 34.8897 2.888C34.386 3.66448 34.2165 4.49318 34.7744 5.34231C34.8796 5.53768 34.9655 5.74216 35.0309 5.95305C34.2354 6.31177 33.9812 6.28226 33.6916 5.7033C32.9196 4.15262 33.3245 2.13423 34.732 1.21698C36.5962 -0.00222626 38.6181 -0.324624 40.7718 0.347416C41.3749 0.514923 41.9497 0.765754 42.4782 1.09211C43.7587 1.95032 45.1286 2.49749 46.8986 2.49749C46.5291 3.43063 45.3216 3.60999 45.3192 4.57264C45.3192 5.43993 45.2722 6.30496 45.291 7.17225C45.3145 8.15307 46.3102 8.51179 46.7927 9.1248C46.0583 9.64927 45.2627 10.033 44.7567 10.6346C44.2506 11.2363 44.0317 12.0741 43.6457 12.905C43.1632 12.1308 42.8242 11.3793 42.2923 10.789C41.7603 10.1987 41.0519 9.73781 40.1363 9.90355C39.8373 10.8344 39.7785 13.4272 40.1739 14.1469C40.4093 14.5738 40.88 14.9053 41.3014 15.2049C41.7721 15.5478 41.8639 15.9315 41.3531 16.1131C39.9927 16.5672 39.1594 17.5003 38.5781 18.7082C38.5522 18.7649 38.451 18.7876 38.265 18.8989C38.0014 18.6378 37.7284 18.3426 37.4294 18.0747C36.6739 17.3936 36.0383 17.33 35.464 17.8477C34.8897 18.3654 34.8638 18.7559 35.3487 19.412C35.457 19.5573 35.5605 19.7026 35.6735 19.8661C34.6379 20.2702 33.9647 20.0046 33.8352 19.0578C33.574 17.1734 33.6893 16.2357 35.73 15.4502C35.9089 15.382 36.0854 15.3048 36.3396 15.2004V10.1329C35.7936 10.4008 36.0548 11.6336 34.8309 11.0297C34.8309 9.83544 34.8097 8.53223 34.8544 7.22447C34.8544 7.05192 35.191 6.88618 35.3699 6.71817C35.5424 6.87363 35.7 7.04385 35.8406 7.22674C35.9473 7.43598 36.0844 7.62941 36.2478 7.80116C36.5279 6.51384 36.5044 5.32869 34.9839 4.54994C36.6527 4.02774 37.3965 2.85848 37.999 1.27374C38.5851 2.07974 38.9405 2.73588 39.4654 3.24899C39.9903 3.76211 40.6611 4.15489 41.3367 4.64529Z" fill="#FEFEFE"/>
<path d="M57.4318 8.62753C58.1379 7.75343 58.87 6.85208 59.6443 5.90305C59.8178 6.03758 59.9756 6.18982 60.1151 6.35713C60.3152 6.63639 60.4588 6.95197 60.6423 7.24259C61.4709 8.55942 62.1746 8.57531 63.0667 7.28799C63.3845 6.83391 63.6669 6.35032 64.0082 5.80542C64.8509 6.83391 65.6041 7.75797 66.4303 8.7683C65.9595 9.34952 65.4017 10.017 65.4652 10.9638C65.5241 11.8719 65.5193 12.7801 65.4935 13.6883C65.4676 14.5964 65.7712 15.3933 66.4914 15.9405L64.1165 18.8988C63.2079 18.2177 63.0408 16.8736 61.9087 16.4014C60.7153 16.8237 60.5788 18.136 59.6302 18.8988L57.4036 16.1448C58.7358 13.6588 58.7429 11.2022 57.4318 8.62753ZM61.6686 15.7929C62.4759 15.3389 62.7113 14.8462 62.7184 14.2513C62.7348 13.0049 62.7372 11.7539 62.7184 10.5097C62.7184 9.91712 62.4995 9.41309 61.9134 9.16108C61.6373 9.24883 61.3992 9.42227 61.2361 9.65434C61.073 9.8864 60.9942 10.164 61.0119 10.4439C60.9883 11.7652 60.9719 13.0912 61.0543 14.408C61.0825 14.8416 61.4191 15.2617 61.6686 15.7997V15.7929Z" fill="#FEFEFE"/>
<path d="M51.3119 18.8807C50.1632 17.6955 48.9981 16.4491 47.2563 16.1426C48.8145 13.6292 48.7133 11.1477 47.3599 8.66159C50.3704 7.76932 50.4622 7.71937 52.1216 5.85083C53.3691 6.98603 54.5789 8.20751 56.5514 8.60937C55.0614 9.66284 55.3133 11.0319 55.3133 12.3238C55.2968 14.3399 55.3133 14.3399 56.316 16.0064C55.4168 16.2833 54.433 16.4241 53.6327 16.8759C52.8324 17.3277 52.1804 18.1042 51.3119 18.8807ZM51.1024 8.85458C51.1024 10.6709 51.0247 12.326 51.1401 13.963C51.1794 14.3394 51.3263 14.698 51.5644 14.9986C51.8026 15.2993 52.1226 15.5302 52.4888 15.6658C52.4888 13.9925 52.5405 12.4191 52.4676 10.8525C52.437 10.0488 51.9403 9.41764 51.1024 8.85458Z" fill="#FEFEFE"/>
<path d="M69.0028 8.70695L67.8024 8.57073C67.7742 8.19611 67.7483 7.84193 67.7153 7.40601L68.9652 7.19713C69.2264 5.81219 69.2994 4.47265 67.7601 3.35107C68.3367 3.16262 68.7251 3.10132 69.0358 2.91969C69.7655 2.49058 70.481 2.03196 71.1542 1.53474C71.9356 0.964872 72.7406 0.50625 73.9787 0.501709C73.3738 1.28273 72.7689 1.83444 72.4723 2.51102C72.1757 3.1876 72.1028 4.04127 72.0321 4.82229C71.9615 5.60331 72.018 6.37752 72.018 7.24254C73.0607 7.0155 72.7241 6.24129 72.9595 5.73045C73.515 5.57607 73.8634 5.64418 73.8516 6.32303C73.8304 7.49456 73.8516 8.66609 73.8398 9.83762C73.8398 10.2054 73.9505 10.6686 73.3808 10.714C72.7689 10.7617 72.8654 10.2826 72.8607 9.91481C72.8607 9.44484 72.8018 9.00665 72.1734 8.75236C72.0975 8.99304 72.0455 9.2401 72.018 9.49024C72.0039 10.6618 72.0392 11.8356 72.0062 13.0048C71.9709 14.2127 72.0674 15.357 73.1831 16.1403L70.6387 18.8443L68.1225 16.2561C68.3862 15.802 68.8028 15.2775 68.9746 14.694C69.1464 14.1105 69.0711 13.4952 69.0782 12.8913C69.0923 11.797 69.0782 10.7004 69.0782 9.60376C69.0782 9.30861 69.0311 9.02708 69.0028 8.70695Z" fill="#FEFEFE"/>
<path d="M23.067 8.21671L24.8559 5.79419C25.0968 6.34463 25.367 6.88268 25.6656 7.40618C25.988 7.91021 26.3999 8.36202 26.8189 8.89556C25.7574 10.1216 25.2913 11.6382 24.91 13.223C24.3451 11.8494 24.105 10.4417 22.8646 9.15666C22.7304 9.81281 22.5868 10.2238 22.5704 10.6392C22.5351 11.6201 22.5704 12.6031 22.5586 13.5908C22.5586 15.0756 23.606 16.12 25.1689 16.1631C25.6248 16.1453 26.08 16.2108 26.5106 16.3561C25.8798 16.7126 25.2207 17.0372 24.6276 17.4346C23.9967 17.8682 23.4318 18.3904 22.7445 18.9444C21.5512 17.791 20.3908 16.5945 18.4607 16.5173C18.7638 16.1013 19.0359 15.665 19.2751 15.2118C19.9436 13.6089 19.8212 11.9493 19.4469 10.3191C19.341 9.8514 18.8726 9.45862 18.4819 8.90465C19.8188 8.36202 20.1742 7.00659 20.9863 5.83506L22.6786 8.23942L23.067 8.21671Z" fill="#FEFEFE"/>
<path d="M27.6191 16.2129L30.0977 13.4702C30.4366 13.9243 30.7708 14.4079 31.1427 14.8574C31.5146 15.307 31.9501 15.7656 32.3973 16.2537L30.0435 18.8647L27.6191 16.2129Z" fill="#FEFEFE"/>
</g>
<defs>
<clipPath id="clip0">
<rect width="74" height="20" fill="white"/>
</clipPath>
</defs>
</svg>
